<svg xmlns="http://www.w3.org/2000/svg" viewBox="0.00 0.00 183.00 200.00"><path fill="#04b3e7" d="  M 47.89 32.09  Q 46.68 28.99 45.57 25.95  A 0.53 0.52 -25.1 0 1 45.80 25.33  L 84.24 3.14  A 0.47 0.47 0.0 0 1 84.94 3.54  Q 85.98 108.11 87.65 177.00  Q 87.85 185.15 87.99 193.35  Q 88.01 194.36 87.17 193.80  L 85.91 192.95  Q 85.46 192.65 85.43 192.11  Q 82.97 135.50 65.65 82.10  Q 57.10 55.76 47.89 32.09  Z"></path><path fill="#04b3e7" d="  M 134.33 26.11  C 125.52 49.11 117.00 72.19 110.15 95.76  Q 96.85 141.57 94.47 192.04  Q 94.44 192.82 93.76 193.21  L 92.80 193.77  Q 91.92 194.27 91.94 193.26  C 93.49 128.55 94.30 66.71 95.06 3.56  A 0.47 0.46 15.6 0 1 95.76 3.17  L 134.04 25.27  Q 134.54 25.57 134.33 26.11  Z"></path><path fill="#256390" d="  M 78.52 188.43  C 74.78 162.68 65.40 138.19 46.74 119.91  C 34.37 107.80 21.27 98.34 5.84 86.98  Q 5.26 86.55 5.26 85.83  Q 5.23 69.46 5.27 53.22  C 5.28 49.78 7.27 47.41 10.18 45.78  Q 22.91 38.63 36.70 30.54  Q 37.21 30.24 37.44 30.78  Q 48.89 58.53 58.48 85.96  Q 75.98 135.99 81.26 190.22  A 0.05 0.04 -82.9 0 1 81.20 190.27  Q 79.82 189.74 78.71 188.78  Q 78.55 188.64 78.52 188.43  Z"></path><path fill="#256390" d="  M 121.01 87.27  C 127.47 68.60 134.84 49.39 142.46 30.90  A 0.60 0.59 -63.8 0 1 143.30 30.61  Q 156.59 38.28 170.33 46.20  Q 174.71 48.73 174.73 53.62  Q 174.77 68.38 174.75 85.89  Q 174.75 86.47 174.28 86.82  Q 162.01 95.86 149.85 105.37  C 140.50 112.68 131.19 120.90 124.00 130.32  C 111.23 147.02 104.63 167.52 101.37 188.62  A 0.48 0.48 0.0 0 1 101.14 188.97  L 98.87 190.30  Q 98.68 190.42 98.70 190.19  Q 103.85 136.91 121.01 87.27  Z"></path><path fill="#725846" d="  M 14.61 151.90  Q 11.10 149.88 7.90 147.88  C 5.54 146.40 5.21 142.44 5.22 139.81  Q 5.28 118.18 5.24 97.13  Q 5.24 96.66 5.63 96.92  Q 23.10 108.91 38.72 122.46  C 58.09 139.26 68.22 160.67 73.62 185.36  Q 73.77 186.06 73.15 185.70  Q 43.67 168.67 14.61 151.90  Z"></path><path fill="#725846" d="  M 106.29 185.58  C 110.71 165.21 118.65 145.84 132.77 130.74  Q 139.69 123.34 148.18 116.53  Q 160.56 106.59 174.28 96.85  Q 174.74 96.52 174.74 97.08  Q 174.76 119.27 174.75 141.75  C 174.74 144.59 173.25 147.34 170.80 148.75  Q 138.28 167.48 106.62 185.82  A 0.22 0.22 0.0 0 1 106.29 185.58  Z"></path></svg>